<svg width="66" height="32" viewBox="0 0 66 32" fill="none" xmlns="http://www.w3.org/2000/svg">
<g filter="url(#filter0_d_14165_132)">
<rect x="4" y="2" width="58" height="24" rx="3" fill="#E74040"/>
<path d="M22.2871 9.2H24.5271V19H22.6651L17.7791 13.05V19H15.5391V9.2H17.4151L22.2871 15.15V9.2ZM29.2998 17.18H34.6338V19H27.0458V9.2H34.4518V11.02H29.2998V13.148H33.8498V14.912H29.2998V17.18ZM49.1436 9.2H51.3136L48.1076 19H45.6716L43.5156 12.364L41.2896 19H38.8676L35.6476 9.2H37.9996L40.2116 16.088L42.5216 9.2H44.6216L46.8616 16.144L49.1436 9.2Z" fill="white"/>
</g>
<defs>
<filter id="filter0_d_14165_132" x="0" y="0" width="66" height="32" filterUnits="userSpaceOnUse" color-interpolation-filters="sRGB">
<feFlood flood-opacity="0" result="BackgroundImageFix"/>
<feColorMatrix in="SourceAlpha" type="matrix" values="0 0 0 0 0 0 0 0 0 0 0 0 0 0 0 0 0 0 127 0" result="hardAlpha"/>
<feOffset dy="2"/>
<feGaussianBlur stdDeviation="2"/>
<feColorMatrix type="matrix" values="0 0 0 0 0 0 0 0 0 0 0 0 0 0 0 0 0 0 0.1 0"/>
<feBlend mode="normal" in2="BackgroundImageFix" result="effect1_dropShadow_14165_132"/>
<feBlend mode="normal" in="SourceGraphic" in2="effect1_dropShadow_14165_132" result="shape"/>
</filter>
</defs>
</svg>
